<?xml version="1.0" encoding="UTF-8" standalone="no"?>
<svg
   xmlns:dc="http://purl.org/dc/elements/1.1/"
   xmlns:cc="http://creativecommons.org/ns#"
   xmlns:rdf="http://www.w3.org/1999/02/22-rdf-syntax-ns#"
   xmlns:svg="http://www.w3.org/2000/svg"
   xmlns="http://www.w3.org/2000/svg"
   xmlns:sodipodi="http://sodipodi.sourceforge.net/DTD/sodipodi-0.dtd"
   xmlns:inkscape="http://www.inkscape.org/namespaces/inkscape"
   width="24"
   height="25"
   viewBox="0 0 24 25"
   fill="none"
   version="1.1"
   id="svg4"
   sodipodi:docname="icon_shopping_cart_withe.svg"
   inkscape:version="0.92.4 (5da689c313, 2019-01-14)">
  <metadata
     id="metadata10">
    <rdf:RDF>
      <cc:Work
         rdf:about="">
        <dc:format>image/svg+xml</dc:format>
        <dc:type
           rdf:resource="http://purl.org/dc/dcmitype/StillImage" />
        <dc:title />
      </cc:Work>
    </rdf:RDF>
  </metadata>
  <defs
     id="defs8" />
  <sodipodi:namedview
     pagecolor="#ffffff"
     bordercolor="#666666"
     borderopacity="1"
     objecttolerance="10"
     gridtolerance="10"
     guidetolerance="10"
     inkscape:pageopacity="0"
     inkscape:pageshadow="2"
     inkscape:window-width="1920"
     inkscape:window-height="1017"
     id="namedview6"
     showgrid="false"
     inkscape:zoom="32"
     inkscape:cx="19.197232"
     inkscape:cy="12.250028"
     inkscape:window-x="-8"
     inkscape:window-y="-8"
     inkscape:window-maximized="1"
     inkscape:current-layer="svg4" />
  <path
     style="fill:#ffffff;fill-opacity:1;stroke:none;stroke-width:0.23622048;stroke-miterlimit:4;stroke-dasharray:0.23622047, 0.23622046999999999;stroke-dashoffset:0;stroke-opacity:1"
     d="M 10.331607,23.870879 C 9.531822,23.806229 8.713057,23.385291 8.187559,22.768599 8.068985,22.629448 7.919295,22.417159 7.854914,22.296847 l -0.117057,-0.21875 -0.0091,-1.332302 c -0.0085,-1.242803 -0.0051,-1.342727 0.0499,-1.487494 0.07663,-0.201669 0.258292,-0.473445 0.467536,-0.699454 l 0.16713,-0.18052 -2.02525,-0.01089 C 4.13318,18.355317 4.22581,18.363537 3.75345,18.132484 3.306541,17.913846 2.875633,17.399919 2.709412,16.887302 2.582445,16.495741 2.592703,15.968642 2.734912,15.576855 2.88646,15.159345 2.960231,15.072041 4.212586,13.828097 L 5.408115,12.640597 4.430631,7.781222 3.453114,2.921847 2.641666,2.906222 1.830218,2.890597 1.62162,2.7878861 C 1.256627,2.6081681 1.05347,2.2929067 1.05347,1.906222 c 0,-0.3883845 0.220094,-0.7267011 0.581247,-0.8934619 l 0.19689,-0.0909131 h 1.3125 1.3125 l 0.173301,0.0812848 c 0.427497,0.2005122 0.517883,0.3642973 0.699769,1.2680214 0.07549,0.3750691 0.146967,0.7204882 0.158844,0.7675981 l 0.02159,0.085654 8.379495,0.0081 8.379496,0.0081 0.14445,0.066791 c 0.353926,0.1636496 0.589925,0.5186524 0.589925,0.887396 0,0.1154062 -0.01925,0.2643319 -0.04279,0.3309459 -0.02353,0.066614 -1.053322,2.1320541 -2.288422,4.5898666 -1.695873,3.3747362 -2.276089,4.5019492 -2.370023,4.6043592 -0.06841,0.07458 -0.195262,0.173023 -0.28189,0.21875 l -0.157505,0.08314 -5.486822,0.01563 -5.486823,0.01563 -1.145681,1.125 c -1.171673,1.150523 -1.229127,1.219097 -1.085704,1.295855 0.04141,0.02216 1.966068,0.02993 6.079364,0.02454 l 6.018771,-0.0079 0.103658,-0.253231 c 0.142637,-0.348459 0.34633,-0.65185 0.650033,-0.968194 0.970645,-1.011046 2.491087,-1.270204 3.743829,-0.638133 0.319858,0.161384 0.558023,0.335968 0.829207,0.60784 0.38976,0.390747 0.645739,0.824124 0.81688,1.382987 0.07833,0.255779 0.08426,0.315351 0.08496,0.853106 7.09e-4,0.543247 -0.0044,0.595092 -0.08536,0.859375 -0.175705,0.573861 -0.420543,0.985445 -0.829458,1.39436 -0.585404,0.585404 -1.266596,0.889891 -2.069633,0.925108 -0.604362,0.0265 -0.546916,0.06413 -1.778474,-1.164782 L 17.205346,18.374984 H 15.024819 12.84429 l 0.182728,0.212308 c 0.528992,0.614625 0.786864,1.298218 0.788272,2.08963 0.0016,0.913566 -0.316155,1.673344 -0.96074,2.297026 -0.694436,0.671914 -1.548888,0.975683 -2.522959,0.896943 z m 0.833871,-2.082462 c 0.245907,-0.121059 0.465787,-0.345377 0.582377,-0.59413 0.07417,-0.158253 0.08375,-0.216219 0.08375,-0.506815 0,-0.299524 -0.008,-0.344409 -0.09158,-0.514943 -0.357712,-0.72971 -1.30613,-0.928595 -1.920486,-0.402728 L 9.69098,19.879842 v 0.823064 0.823064 l 0.117188,0.09007 c 0.316163,0.243007 0.468527,0.29327 0.854027,0.281733 0.263767,-0.0079 0.323575,-0.02089 0.503281,-0.109358 z m 9.292927,-3.366289 c 0.177681,-0.103683 0.379606,-0.332719 0.477565,-0.541683 0.07348,-0.156742 0.08314,-0.215472 0.08314,-0.505473 0,-0.299524 -0.008,-0.344409 -0.09158,-0.514943 -0.122058,-0.248991 -0.344338,-0.465436 -0.604021,-0.588168 -0.191325,-0.09042 -0.237882,-0.09949 -0.507524,-0.09879 -0.235476,6.06e-4 -0.334261,0.01565 -0.477643,0.07273 -0.234802,0.09348 -0.513103,0.350566 -0.630343,0.582287 l -0.08956,0.177001 0.775577,0.776043 c 0.865343,0.865862 0.773657,0.810647 1.064387,0.640995 z m -1.75822,-9.8682894 c 0.94178,-1.8772829 1.711701,-3.4237885 1.710937,-3.4366791 -0.002,-0.034442 -14.50139,-0.029401 -14.50139,0.00504 0,0.026746 1.323822,6.6246675 1.359594,6.7762075 l 0.0166,0.07031 4.850966,-8.22e-4 4.850967,-8.22e-4 1.712328,-3.4132412 z"
     id="path8"
     inkscape:connector-curvature="0" />
</svg>
